<?xml version="1.0" encoding="utf-8"?>
<svg viewBox="0 0 249 308" xmlns="http://www.w3.org/2000/svg" xmlns:xlink="http://www.w3.org/1999/xlink" xmlns:bx="https://boxy-svg.com">
  <defs>
    <pattern id="pattern-1-0" patternTransform="matrix(1, 0, 0, 1, 94.412003, -15.2705)" xlink:href="#pattern-1"/>
    <pattern id="pattern-1" viewBox="0 0 100 100" patternUnits="userSpaceOnUse" preserveAspectRatio="none" width="100" height="100" bx:pinned="true">
      <rect x="-5.097" y="-3.636" width="111.844" height="108.025" style="fill: rgb(195, 0, 0); stroke: rgb(195, 0, 0);"/>
      <path style="fill: none; stroke-width: 11px; stroke-linecap: round; stroke: rgb(175, 0, 0);" d="M 48.968 107.333 C 48.968 107.333 96.288 86.607 112.921 48.578"/>
      <path style="fill: none; stroke-width: 11px; stroke-linecap: round; stroke: rgb(175, 0, 0);" d="M 4.054 106.783 C 4.054 106.783 81.144 73.331 108.242 11.953"/>
      <path style="fill: none; stroke-width: 11px; stroke-linecap: round; stroke: rgb(175, 0, 0);" d="M -26.047 68.5 C -26.047 68.5 51.043 35.048 78.141 -26.33"/>
      <path style="fill: none; stroke-width: 11px; stroke-linecap: round; stroke: rgb(175, 0, 0);" d="M -9.501 86.543 C -9.501 86.543 67.589 53.091 94.687 -8.287"/>
      <path style="fill: none; stroke-width: 11px; stroke-linecap: round; stroke: rgb(175, 0, 0);" d="M -50.677 53.412 C -50.677 53.412 26.413 19.96 53.511 -41.418"/>
      <path style="fill: none; stroke-width: 11px; stroke-linecap: round; stroke: rgb(175, 0, 0);" d="M 69.758 121.632 C 69.758 121.632 110.326 104.504 124.586 73.076"/>
      <path style="fill: none; stroke-width: 11px; stroke-linecap: round; stroke: rgb(175, 0, 0);" d="M -40.758 15.977 C -40.758 15.977 -0.19 -1.151 14.07 -32.579"/>
    </pattern>
  </defs>
  <path style="stroke: rgb(230, 235, 204); fill: rgb(230, 235, 204); stroke-linecap: round;" d="M 107.776 57.189 C 107.776 57.189 133.433 28.783 171.369 44.91 C 209.305 61.037 208.022 175.394 208.022 175.394 C 208.022 175.394 126.835 232.206 50.964 212.78 C -24.907 193.354 22.559 167.513 22.559 167.513 C 22.559 167.513 4.232 145.155 24.391 132.51 C 44.55 119.865 75.339 132.327 93.848 102.821 C 95.314 92.925 81.753 74.599 107.776 57.189 Z">
    <title>Hair</title>
  </path>
  <g transform="matrix(1, 0, 0, 1, -32.562035, -45.65059)">
    <title>Body</title>
    <path style="stroke: rgb(247, 122, 62); fill: rgb(247, 122, 62);" d="M 145.512 132.756 C 145.512 132.756 142.047 183.41 178.268 185.669 C 214.489 187.928 200.63 132.126 200.63 132.126 C 200.63 132.126 170.167 98.911 145.512 132.756 Z"/>
    <path style="stroke: rgb(247, 122, 62); fill: rgb(247, 122, 62);" d="M 191.949 177.994 L 191.949 196.892 C 191.949 196.892 192.894 212.325 199.508 211.38 C 206.122 210.435 229.931 212.212 229.931 212.212 C 229.931 212.212 236.021 244.051 201.083 248.86 C 166.145 253.669 180.296 252.64 179.351 252.01 C 136.201 265.238 133.682 214.845 133.682 214.845 C 133.682 214.845 147.539 214.845 157.933 213.585 C 168.327 212.325 167.697 199.727 167.697 199.727 L 166.437 180.829"/>
    <path style="stroke: rgb(247, 122, 62); fill: rgb(247, 122, 62);" d="M 149.127 148.367 C 149.127 148.367 136.448 141.513 134.734 146.996 C 133.02 152.479 135.077 158.133 135.077 158.133 C 135.077 158.133 149.127 164.987 149.984 159.333 C 150.841 153.679 149.47 149.223 149.127 148.367 Z"/>
    <path style="stroke: rgb(247, 122, 62); fill: rgb(247, 122, 62);" d="M 215.381 154.418 C 215.381 154.418 202.702 161.272 200.988 155.789 C 199.274 150.306 201.331 144.652 201.331 144.652 C 201.331 144.652 215.381 137.798 216.238 143.452 C 217.095 149.106 215.724 153.562 215.381 154.418 Z" transform="matrix(-1, 0, 0, -1, 416.821381, 299.131485)"/>
  </g>
  <path style="stroke: rgb(230, 235, 204); fill: rgb(230, 235, 204);" d="M 110.709 79.547 C 110.709 79.547 135.266 98.423 138.748 77.714 C 142.23 57.005 110.342 78.63 110.709 79.547 Z">
    <title>Bangs left</title>
  </path>
  <path style="stroke: rgb(230, 235, 204); fill: rgb(230, 235, 204);" d="M 168.07 81.929 C 168.07 81.929 139.298 97.323 136.549 70.567 C 133.8 43.811 169.353 81.929 168.07 81.929 Z">
    <title>Bangs right</title>
  </path>
  <g transform="matrix(1, 0, 0, 1, -32.562035, -43.511559)" style="">
    <title>Clothes</title>
    <path style="fill: none; stroke-width: 5px; stroke-linecap: round; stroke: rgb(0, 111, 139);" d="M 145.919 210.135 C 145.919 210.135 187.041 247.316 215.312 206.365"/>
    <path style="stroke: rgb(0, 111, 139); fill: rgb(0, 111, 139);" d="M 145.844 208.163 C 145.844 208.163 124.891 208.706 115.81 219.843 C 106.729 230.98 87.253 334.253 87.253 334.253"/>
    <path style="fill: rgb(0, 111, 139); stroke: rgb(0, 111, 139);" d="M 269.542 331.298 C 269.542 331.298 246.933 330.776 237.852 319.639 C 228.771 308.502 213.288 205.208 213.288 205.208" transform="matrix(-1, 0, 0, -1, 484.768951, 535.636703)"/>
    <path style="stroke: rgb(0, 111, 139); fill: rgb(0, 111, 139);" d="M 87.365 334.397 C 87.365 334.397 212.444 364.162 271.282 330.16 L 218.681 206.269 C 218.681 206.269 189.705 247.959 143.581 210.113 L 87.365 334.397 Z"/>
  </g>
  <path style="fill: none; stroke: rgb(191, 0, 0); stroke-linecap: round; stroke-width: 2px;" d="M 104.035 105.711 C 104.035 105.711 105.016 98.737 112.971 104.186">
    <title>Ear Detail left</title>
  </path>
  <path style="fill: none; stroke-linecap: round; stroke: rgb(191, 0, 0); stroke-width: 2px;" d="M 170.944 101.244 C 170.944 101.244 182.168 95.468 180.969 102.006">
    <title>Ear Detail right</title>
  </path>
  <g style="" transform="matrix(0.997564, 0.069756, -0.069756, 0.997564, -19.820425, -53.303758)">
    <title>Eye left</title>
    <path style="stroke: rgb(0, 0, 0); stroke-linecap: round; fill: none; stroke-width: 2px;" d="M 153.162 145.587 C 153.162 145.587 159.046 139.158 165.803 144.497"/>
    <line style="stroke: rgb(0, 0, 0); fill: none; stroke-linecap: round; stroke-width: 2px;" x1="153.147" y1="145.509" x2="150.878" y2="143.145"/>
    <line style="stroke: rgb(0, 0, 0); fill: none; stroke-linecap: round; stroke-width: 2px;" x1="154.457" y1="144.165" x2="153.299" y2="142.828"/>
  </g>
  <g style="" transform="matrix(-1, 0, 0, 1, 316.219731, -43.692223)">
    <title>Eye right</title>
    <path style="stroke: rgb(0, 0, 0); stroke-linecap: round; fill: none; stroke-width: 2px;" d="M 153.159 145.687 C 153.159 145.687 159.043 139.258 165.8 144.597" transform="matrix(0.996195, 0.087155, -0.087155, 0.996195, 13.164371, -13.351209)"/>
    <line style="stroke: rgb(0, 0, 0); fill: none; stroke-linecap: round; stroke-width: 2px;" x1="153.142" y1="144.956" x2="150.873" y2="142.592" transform="matrix(0.996195, 0.087155, -0.087155, 0.996195, 13.10909, -12.701157)"/>
    <line style="stroke: rgb(0, 0, 0); fill: none; stroke-linecap: round; stroke-width: 2px;" x1="154.517" y1="143.778" x2="153.359" y2="142.441" transform="matrix(0.996195, 0.087155, -0.087155, 0.996195, 13.058521, -12.871939)"/>
  </g>
  <path style="stroke: rgb(0, 0, 0); fill: none; stroke-linecap: round; stroke-width: 2px;" d="M 143.209 102.097 L 144.011 109.907 C 144.011 109.907 147.114 110.817 147.649 109.319 C 148.184 107.821 151.019 113.545 145.081 114.775">
    <title>Nose</title>
  </path>
  <g transform="matrix(1, 0, 0, 1, -32.562035, -45.65059)">
    <title>Shadow</title>
    <path style="stroke-linecap: round; fill: none; stroke: rgb(191, 0, 0); stroke-width: 2px;" d="M 170.951 183.88 C 170.951 183.88 190.618 186.975 196.079 180.536"/>
    <path style="stroke-linecap: round; stroke: rgb(191, 0, 0); fill: rgb(191, 0, 0);" d="M 173.51 184.595 C 173.51 184.595 180.812 195.563 191.923 194.298 L 191.962 184.022 C 185.802 185.654 179.56 185.86 173.51 184.595 Z"/>
  </g>
  <path style="stroke: rgb(0, 0, 0); fill: none; stroke-linecap: round; stroke-width: 2px; visibility: hidden;" d="M 138.974 125.54 C 144.727 128.882 149.335 127.143 153.492 125.064">
    <title>Mouth</title>
  </path>
  <g transform="matrix(1, 0, 0, 1, -32.562035, -45.65059)">
    <title>Details</title>
    <path style="fill: none; stroke-linecap: round; stroke: rgb(255, 255, 255); stroke-width: 2px;" d="M 144.969 224.411 C 179.738 246.796 206.787 241.968 225.34 207.714"/>
    <path style="fill: rgb(216, 216, 216); stroke-linecap: round; stroke: rgb(255, 255, 255); stroke-width: 2px;" d="M 135.901 266.485 L 115.729 342.313"/>
    <path style="fill: rgb(216, 216, 216); stroke-linecap: round; stroke: rgb(255, 255, 255); stroke-width: 2px;" d="M 228.311 261.626 L 247.954 342.314"/>
    <path style="fill: none; stroke: rgb(255, 255, 255); stroke-linecap: round; stroke-width: 2px;" d="M 149.154 214.551 C 148.27 216.142 146.477 217.279 143.774 217.961"/>
    <path style="fill: none; stroke: rgb(255, 255, 255); stroke-linecap: round; stroke-width: 2px;" d="M 155.117 220.1 C 154.233 221.691 152.44 222.828 149.737 223.51" transform="matrix(0.987688, -0.156434, 0.156434, 0.987688, -32.821238, 26.575549)"/>
    <path style="fill: none; stroke: rgb(255, 255, 255); stroke-linecap: round; stroke-width: 2px;" d="M 162.55 224.055 C 161.666 225.646 159.873 226.783 157.17 227.465" transform="matrix(0.97437, -0.224951, 0.224951, 0.97437, -46.687732, 41.746872)"/>
    <path style="fill: none; stroke: rgb(255, 255, 255); stroke-linecap: round; stroke-width: 2px;" d="M 172.196 227.371 C 171.112 228.962 168.903 230.099 165.568 230.781" transform="matrix(0.671861, -0.740677, 0.740677, 0.671861, -114.254608, 200.255741)"/>
    <path style="fill: none; stroke: rgb(255, 255, 255); stroke-linecap: round; stroke-width: 2px;" d="M 181.961 228.506 C 180.877 230.097 178.668 231.234 175.333 231.916" transform="matrix(0.601827, -0.798626, 0.798626, 0.601827, -112.720192, 234.335936)"/>
    <path style="fill: none; stroke: rgb(255, 255, 255); stroke-linecap: round; stroke-width: 2px;" d="M 193.266 227.861 C 192.182 229.452 189.973 230.589 186.638 231.271" transform="matrix(0.325583, -0.945514, 0.945514, 0.325583, -88.950856, 334.425445)"/>
    <path style="fill: none; stroke: rgb(255, 255, 255); stroke-linecap: round; stroke-width: 2px;" d="M 204.293 223.346 C 203.3 224.937 201.276 226.074 198.221 226.756" transform="matrix(0.000016, -1, 1, 0.000016, -23.797219, 426.30439)"/>
    <path style="fill: none; stroke: rgb(255, 255, 255); stroke-linecap: round; stroke-width: 2px;" d="M 212.586 217.041 C 211.613 218.632 209.63 219.769 206.635 220.451" transform="matrix(-0.438357, -0.898801, 0.898801, -0.438357, 104.885592, 503.032949)"/>
    <path style="fill: none; stroke: rgb(255, 255, 255); stroke-linecap: round; stroke-width: 2px;" d="M 218.539 209.855 C 217.555 211.474 215.55 212.63 212.523 213.324" transform="matrix(-0.656047, -0.75472, 0.75472, -0.656047, 197.238614, 513.067719)"/>
  </g>
  <path style="stroke: rgb(0, 0, 0); stroke-linejoin: round; stroke-linecap: round; fill: rgb(237, 237, 237); visibility: hidden;" d="M 139.419 125.112 L 153.952 123.714 C 153.952 123.714 147.145 133.575 139.419 125.112 Z">
    <title>Mouth (happy)</title>
  </path>
  <g style="visibility: hidden;" transform="matrix(1, 0, 0, 1, 0.201619, 32.508469)">
    <title>Eyebrows</title>
    <path style="stroke: rgb(0, 0, 0); stroke-linecap: round; fill: none; stroke-width: 2px;" d="M 121.312 61.752 C 121.312 61.752 128.079 58.041 134.076 61.133">
      <title>Eyebrow left</title>
    </path>
    <path style="stroke: rgb(0, 0, 0); stroke-linecap: round; fill: none; stroke-width: 2px;" d="M 149.579 60.939 C 149.579 60.939 156.346 57.228 162.343 60.32">
      <title>Eyebrow right</title>
    </path>
  </g>
  <path style="stroke: rgb(0, 0, 0); visibility: hidden;" d="M 142.482 98.899 C 140.82 99.291 140.621 100.87 140.618 101.586 C 140.719 102.013 140.771 102.453 140.771 102.902 C 140.771 107.186 136.004 110.659 130.124 110.659 C 124.244 110.659 119.477 107.186 119.477 102.902 C 119.477 102.006 119.685 101.146 120.069 100.346 L 113.357 99.521 C 112.919 99.467 112.606 99.076 112.659 98.646 C 112.712 98.217 113.11 97.913 113.548 97.967 L 121.015 98.884 C 122.882 96.642 126.263 95.145 130.124 95.145 C 130.993 95.145 131.838 95.221 132.646 95.364 L 155.856 95.364 C 156.348 95.311 156.85 95.284 157.361 95.284 C 160.16 95.284 162.701 96.103 164.575 97.436 L 170.446 96.715 C 170.885 96.661 171.283 96.965 171.336 97.394 C 171.389 97.823 171.076 98.215 170.637 98.269 L 166.122 98.823 C 167.182 100.037 167.798 101.486 167.798 103.041 C 167.798 107.325 163.125 110.798 157.361 110.798 C 151.597 110.798 146.924 107.325 146.924 103.041 C 146.924 102.669 146.959 102.304 147.027 101.946 C 147.027 101.946 147.399 99.415 144.884 98.904 C 145.826 98.945 147.112 98.996 148.414 99.045 C 148.462 98.985 148.512 98.926 148.563 98.867 L 144.674 98.867 C 144.746 98.878 144.816 98.89 144.884 98.904 C 144.579 98.891 144.31 98.878 144.089 98.867 L 143.08 98.867 C 142.907 98.877 142.706 98.887 142.482 98.899 C 142.532 98.887 142.583 98.877 142.635 98.867 L 139.219 98.867 C 139.268 98.925 139.316 98.984 139.362 99.044 C 140.511 98.993 141.651 98.941 142.482 98.899 Z">
    <title>Sunglasses</title>
  </path>
  <g transform="matrix(1, 0, 0, 1, -3.606513, -0.553102)">
    <title>Party Hat</title>
    <path d="M 144.375 8.479 L 163.213 59.524 L 162.845 59.524 C 163.257 59.619 163.477 59.718 163.477 59.821 C 163.477 60.461 154.941 60.98 144.412 60.98 C 133.883 60.98 125.347 60.461 125.347 59.821 C 125.347 59.718 125.567 59.619 125.979 59.524 L 125.537 59.524 L 144.375 8.479 Z" style="stroke-linejoin: round; stroke: rgb(51, 167, 217); fill: url(#pattern-1-0); stroke-width: 0px;"/>
    <path stroke-width="0" d="M 132.436 53.734 C 132.923 53.635 133.377 53.648 133.865 53.734 C 134.391 53.826 134.848 54.26 135.486 54.306 C 136.262 54.361 137.4 53.747 138.25 53.829 C 139.042 53.906 139.722 54.6 140.442 54.687 C 141.119 54.768 141.855 54.385 142.443 54.401 C 142.946 54.415 143.36 54.739 143.778 54.687 C 144.185 54.636 144.473 54.23 144.922 54.115 C 145.437 53.983 146.117 53.935 146.732 54.02 C 147.386 54.11 148.206 54.688 148.734 54.687 C 149.13 54.686 149.27 54.379 149.687 54.306 C 150.261 54.204 151.378 54.256 151.975 54.306 C 152.414 54.342 152.6 54.482 153.023 54.496 C 153.568 54.515 154.673 54.28 155.024 54.306 C 155.189 54.318 155.136 54.391 155.31 54.401 C 155.724 54.425 157.224 54.033 157.884 54.115 C 158.375 54.176 158.531 54.48 159.028 54.591 C 159.703 54.743 160.885 54.527 161.696 54.782 C 162.486 55.03 163.334 55.543 163.841 56.069 C 164.289 56.533 164.54 57.116 164.699 57.689 C 164.856 58.26 164.97 58.857 164.794 59.5 C 164.579 60.284 163.909 61.444 163.221 62.026 C 162.573 62.574 161.722 62.771 160.838 62.979 C 159.867 63.207 158.628 63.254 157.598 63.265 C 156.632 63.275 155.565 63.006 154.834 63.074 C 154.28 63.126 154.019 63.386 153.499 63.455 C 152.876 63.539 152.198 63.528 151.307 63.455 C 150.127 63.36 147.945 62.756 146.923 62.788 C 146.264 62.809 146.064 63.099 145.493 63.169 C 144.782 63.257 143.882 63.207 142.92 63.169 C 141.793 63.126 140.056 63.055 139.108 62.884 C 138.439 62.763 138.238 62.509 137.583 62.407 C 136.683 62.267 134.77 62.213 134.056 62.312 C 133.659 62.367 133.699 62.536 133.294 62.598 C 132.542 62.712 130.59 62.719 129.481 62.598 C 128.538 62.495 127.758 62.368 127.003 62.026 C 126.25 61.684 125.429 61.096 124.954 60.548 C 124.548 60.08 124.335 59.563 124.191 59.023 C 124.048 58.483 124.013 57.853 124.096 57.308 C 124.177 56.774 124.398 56.225 124.668 55.783 C 124.928 55.356 125.255 54.99 125.669 54.687 C 126.115 54.36 126.693 54.055 127.289 53.924 C 127.924 53.785 128.77 53.828 129.386 53.924 C 129.926 54.009 130.324 54.421 130.816 54.401 C 131.338 54.38 131.908 53.84 132.436 53.734 Z" style="stroke-width: 2px; fill: rgb(255, 170, 72); stroke: rgb(255, 170, 72);"/>
    <path stroke-width="0" d="M 144.202 5.307 C 144.525 5.249 144.885 5.333 145.139 5.436 C 145.361 5.526 145.497 5.663 145.673 5.84 C 145.88 6.05 146.169 6.356 146.287 6.648 C 146.399 6.928 146.389 7.226 146.384 7.553 C 146.377 7.92 146.355 8.423 146.222 8.749 C 146.105 9.037 145.894 9.267 145.689 9.444 C 145.497 9.61 145.256 9.731 145.042 9.8 C 144.847 9.862 144.641 9.893 144.46 9.864 C 144.286 9.836 144.155 9.663 143.976 9.638 C 143.781 9.611 143.53 9.738 143.329 9.735 C 143.145 9.732 142.98 9.709 142.812 9.638 C 142.629 9.56 142.417 9.418 142.279 9.266 C 142.145 9.12 142.043 8.947 141.988 8.749 C 141.927 8.532 141.912 8.299 141.955 8.006 C 142.013 7.621 142.199 6.982 142.408 6.616 C 142.586 6.303 142.793 6.099 143.071 5.889 C 143.378 5.655 143.838 5.372 144.202 5.307 Z" style="stroke-width: 2px; fill: rgb(255, 170, 72); stroke: rgb(255, 170, 72);"/>
  </g>
  <ellipse style="stroke: rgb(0, 0, 0); fill: rgb(255, 255, 255);" cx="145.753" cy="126.125" rx="1.511" ry="2.022"/>
  <g transform="matrix(1, 0, 0, 0.94209, -28.813158, 5.508823)" style="">
    <title>Party Whistle</title>
    <g>
      <path style="fill: none; stroke: rgb(195, 0, 0);" d="M 218.164 131.17 L 193.625 131.004 L 193.529 126.447 C 193.529 126.447 203.793 126.744 206.681 127.693 C 209.569 128.642 214.191 130.304 214.191 130.304 C 214.191 130.304 219.797 132.539 221.047 129.86 C 222.297 127.181 217.476 124.538 217.476 124.538 C 217.476 124.538 212.582 126.217 215.439 128.074 C 218.296 129.931 218.869 127.824 218.869 127.824 C 218.869 127.824 218.154 126.288 217.083 127.003"/>
      <path style="stroke: rgb(195, 0, 0); fill: rgb(195, 0, 0);" d="M 194.806 126.55 C 194.806 126.55 195.194 128.962 194.772 130.813 L 214.255 130.954 C 214.255 130.954 203.43 126.55 194.806 126.55 Z"/>
    </g>
    <path style="fill: rgb(230, 209, 226); stroke: rgb(230, 209, 226);" d="M 193.748 126.44 L 189.073 126.326 L 188.96 130.869 L 193.664 131.041 C 193.664 131.041 194.367 129.044 193.748 126.44 Z"/>
    <path style="fill: rgb(255, 170, 72); stroke: rgb(255, 170, 72);" d="M 189.033 126.323 L 174.875 126.914 L 174.916 129.24 L 188.902 130.878 C 188.902 130.878 190.059 128.363 189.033 126.323 Z"/>
    <ellipse style="fill: rgb(255, 170, 72);" cx="174.401" cy="128.058" rx="0.336" ry="1.627" transform="matrix(0.999828, -0.018525, 0.016442, 0.999867, -2.075661, 3.247789)"/>
  </g>
</svg>