<?xml version="1.0" encoding="utf-8"?>
<svg viewBox="0 0 249 284" xmlns="http://www.w3.org/2000/svg">
  <path style="stroke: rgb(230, 235, 204); fill: rgb(230, 235, 204); stroke-linecap: round;" d="M 107.575 24.681 C 107.575 24.681 133.232 -3.725 171.168 12.402 C 209.104 28.529 207.821 142.886 207.821 142.886 C 207.821 142.886 126.634 199.698 50.763 180.272 C -25.108 160.846 22.358 135.005 22.358 135.005 C 22.358 135.005 4.031 112.647 24.19 100.002 C 44.349 87.357 75.138 99.819 93.647 70.313 C 95.113 60.417 81.552 42.091 107.575 24.681 Z">
    <title>Hair</title>
  </path>
  <g transform="matrix(1, 0, 0, 1, -32.763653, -78.159059)">
    <title>Body</title>
    <path style="stroke: rgb(247, 122, 62); fill: rgb(247, 122, 62);" d="M 145.512 132.756 C 145.512 132.756 142.047 183.41 178.268 185.669 C 214.489 187.928 200.63 132.126 200.63 132.126 C 200.63 132.126 170.167 98.911 145.512 132.756 Z"/>
    <path style="stroke: rgb(247, 122, 62); fill: rgb(247, 122, 62);" d="M 191.949 177.994 L 191.949 196.892 C 191.949 196.892 192.894 212.325 199.508 211.38 C 206.122 210.435 229.931 212.212 229.931 212.212 C 229.931 212.212 236.021 244.051 201.083 248.86 C 166.145 253.669 180.296 252.64 179.351 252.01 C 136.201 265.238 133.682 214.845 133.682 214.845 C 133.682 214.845 147.539 214.845 157.933 213.585 C 168.327 212.325 167.697 199.727 167.697 199.727 L 166.437 180.829"/>
    <path style="stroke: rgb(247, 122, 62); fill: rgb(247, 122, 62);" d="M 149.127 148.367 C 149.127 148.367 136.448 141.513 134.734 146.996 C 133.02 152.479 135.077 158.133 135.077 158.133 C 135.077 158.133 149.127 164.987 149.984 159.333 C 150.841 153.679 149.47 149.223 149.127 148.367 Z"/>
    <path style="stroke: rgb(247, 122, 62); fill: rgb(247, 122, 62);" d="M 215.381 154.418 C 215.381 154.418 202.702 161.272 200.988 155.789 C 199.274 150.306 201.331 144.652 201.331 144.652 C 201.331 144.652 215.381 137.798 216.238 143.452 C 217.095 149.106 215.724 153.562 215.381 154.418 Z" transform="matrix(-1, 0, 0, -1, 416.821381, 299.131485)"/>
  </g>
  <path style="stroke: rgb(230, 235, 204); fill: rgb(230, 235, 204);" d="M 110.508 47.039 C 110.508 47.039 135.065 65.915 138.547 45.206 C 142.029 24.497 110.141 46.122 110.508 47.039 Z">
    <title>Bangs left</title>
  </path>
  <path style="stroke: rgb(230, 235, 204); fill: rgb(230, 235, 204);" d="M 167.869 49.421 C 167.869 49.421 139.097 64.815 136.348 38.059 C 133.599 11.303 169.152 49.421 167.869 49.421 Z">
    <title>Bangs right</title>
  </path>
  <g transform="matrix(1, 0, 0, 1, -32.763653, -76.020028)" style="">
    <title>Clothes</title>
    <path style="fill: none; stroke-width: 5px; stroke-linecap: round; stroke: rgb(0, 111, 139);" d="M 145.919 210.135 C 145.919 210.135 187.041 247.316 215.312 206.365"/>
    <path style="stroke: rgb(0, 111, 139); fill: rgb(0, 111, 139);" d="M 145.844 208.163 C 145.844 208.163 124.891 208.706 115.81 219.843 C 106.729 230.98 87.253 334.253 87.253 334.253"/>
    <path style="fill: rgb(0, 111, 139); stroke: rgb(0, 111, 139);" d="M 269.542 331.298 C 269.542 331.298 246.933 330.776 237.852 319.639 C 228.771 308.502 213.288 205.208 213.288 205.208" transform="matrix(-1, 0, 0, -1, 484.768951, 535.636703)"/>
    <path style="stroke: rgb(0, 111, 139); fill: rgb(0, 111, 139);" d="M 87.365 334.397 C 87.365 334.397 212.444 364.162 271.282 330.16 L 218.681 206.269 C 218.681 206.269 189.705 247.959 143.581 210.113 L 87.365 334.397 Z"/>
  </g>
  <path style="fill: none; stroke: rgb(191, 0, 0); stroke-linecap: round; stroke-width: 2px;" d="M 103.834 73.203 C 103.834 73.203 104.815 66.229 112.77 71.678">
    <title>Ear Detail left</title>
  </path>
  <path style="fill: none; stroke-linecap: round; stroke: rgb(191, 0, 0); stroke-width: 2px;" d="M 170.743 68.736 C 170.743 68.736 181.967 62.96 180.768 69.498">
    <title>Ear Detail right</title>
  </path>
  <g style="" transform="matrix(1, 0, 0, 1, -30.451434, -75.117685)">
    <title>Eye left</title>
    <path style="stroke: rgb(0, 0, 0); stroke-linecap: round; fill: none; stroke-width: 2px;" d="M 153.162 145.587 C 153.162 145.587 159.046 139.158 165.803 144.497"/>
    <line style="stroke: rgb(0, 0, 0); fill: none; stroke-linecap: round; stroke-width: 2px;" x1="153.147" y1="145.509" x2="150.878" y2="143.145"/>
    <line style="stroke: rgb(0, 0, 0); fill: none; stroke-linecap: round; stroke-width: 2px;" x1="154.457" y1="144.165" x2="153.299" y2="142.828"/>
  </g>
  <g style="" transform="matrix(-1, 0, 0, 1, 316.018102, -76.200692)">
    <title>Eye right</title>
    <path style="stroke: rgb(0, 0, 0); stroke-linecap: round; fill: none; stroke-width: 2px;" d="M 153.162 145.587 C 153.162 145.587 159.046 139.158 165.803 144.497"/>
    <line style="stroke: rgb(0, 0, 0); fill: none; stroke-linecap: round; stroke-width: 2px;" x1="153.147" y1="145.509" x2="150.878" y2="143.145"/>
    <line style="stroke: rgb(0, 0, 0); fill: none; stroke-linecap: round; stroke-width: 2px;" x1="154.457" y1="144.165" x2="153.299" y2="142.828"/>
  </g>
  <path style="stroke: rgb(0, 0, 0); fill: none; stroke-linecap: round; stroke-width: 2px;" d="M 143.24 69.444 L 144.042 77.254 C 144.042 77.254 147.145 78.164 147.68 76.666 C 148.215 75.168 151.05 80.892 145.112 82.122">
    <title>Nose</title>
  </path>
  <g transform="matrix(1, 0, 0, 1, -32.763653, -78.159059)">
    <title>Shadow</title>
    <path style="stroke-linecap: round; fill: none; stroke: rgb(191, 0, 0); stroke-width: 2px;" d="M 170.951 183.88 C 170.951 183.88 190.618 186.975 196.079 180.536"/>
    <path style="stroke-linecap: round; stroke: rgb(191, 0, 0); fill: rgb(191, 0, 0);" d="M 173.51 184.595 C 173.51 184.595 180.812 195.563 191.923 194.298 L 191.962 184.022 C 185.802 185.654 179.56 185.86 173.51 184.595 Z"/>
  </g>
  <path style="stroke: rgb(0, 0, 0); fill: none; stroke-linecap: round; stroke-width: 2px;" d="M 138.773 93.032 C 144.526 96.374 149.134 94.635 153.291 92.556">
    <title>Mouth</title>
  </path>
  <g transform="matrix(1, 0, 0, 1, -32.763653, -78.159059)">
    <title>Details</title>
    <path style="fill: none; stroke-linecap: round; stroke: rgb(255, 255, 255); stroke-width: 2px;" d="M 144.969 224.411 C 179.738 246.796 206.787 241.968 225.34 207.714"/>
    <path style="fill: rgb(216, 216, 216); stroke-linecap: round; stroke: rgb(255, 255, 255); stroke-width: 2px;" d="M 135.901 266.485 L 115.729 342.313"/>
    <path style="fill: rgb(216, 216, 216); stroke-linecap: round; stroke: rgb(255, 255, 255); stroke-width: 2px;" d="M 228.311 261.626 L 247.954 342.314"/>
    <path style="fill: none; stroke: rgb(255, 255, 255); stroke-linecap: round; stroke-width: 2px;" d="M 149.154 214.551 C 148.27 216.142 146.477 217.279 143.774 217.961"/>
    <path style="fill: none; stroke: rgb(255, 255, 255); stroke-linecap: round; stroke-width: 2px;" d="M 155.117 220.1 C 154.233 221.691 152.44 222.828 149.737 223.51" transform="matrix(0.987688, -0.156434, 0.156434, 0.987688, -32.821238, 26.575549)"/>
    <path style="fill: none; stroke: rgb(255, 255, 255); stroke-linecap: round; stroke-width: 2px;" d="M 162.55 224.055 C 161.666 225.646 159.873 226.783 157.17 227.465" transform="matrix(0.97437, -0.224951, 0.224951, 0.97437, -46.687732, 41.746872)"/>
    <path style="fill: none; stroke: rgb(255, 255, 255); stroke-linecap: round; stroke-width: 2px;" d="M 172.196 227.371 C 171.112 228.962 168.903 230.099 165.568 230.781" transform="matrix(0.671861, -0.740677, 0.740677, 0.671861, -114.254608, 200.255741)"/>
    <path style="fill: none; stroke: rgb(255, 255, 255); stroke-linecap: round; stroke-width: 2px;" d="M 181.961 228.506 C 180.877 230.097 178.668 231.234 175.333 231.916" transform="matrix(0.601827, -0.798626, 0.798626, 0.601827, -112.720192, 234.335936)"/>
    <path style="fill: none; stroke: rgb(255, 255, 255); stroke-linecap: round; stroke-width: 2px;" d="M 193.266 227.861 C 192.182 229.452 189.973 230.589 186.638 231.271" transform="matrix(0.325583, -0.945514, 0.945514, 0.325583, -88.950856, 334.425445)"/>
    <path style="fill: none; stroke: rgb(255, 255, 255); stroke-linecap: round; stroke-width: 2px;" d="M 204.293 223.346 C 203.3 224.937 201.276 226.074 198.221 226.756" transform="matrix(0.000016, -1, 1, 0.000016, -23.797219, 426.30439)"/>
    <path style="fill: none; stroke: rgb(255, 255, 255); stroke-linecap: round; stroke-width: 2px;" d="M 212.586 217.041 C 211.613 218.632 209.63 219.769 206.635 220.451" transform="matrix(-0.438357, -0.898801, 0.898801, -0.438357, 104.885592, 503.032949)"/>
    <path style="fill: none; stroke: rgb(255, 255, 255); stroke-linecap: round; stroke-width: 2px;" d="M 218.539 209.855 C 217.555 211.474 215.55 212.63 212.523 213.324" transform="matrix(-0.656047, -0.75472, 0.75472, -0.656047, 197.238614, 513.067719)"/>
  </g>
</svg>